<?xml version="1.0" ?><svg id="Line" style="enable-background:new 0 0 200 200;" version="1.1" viewBox="0 0 200 200" xml:space="preserve" xmlns="http://www.w3.org/2000/svg" xmlns:xlink="http://www.w3.org/1999/xlink"><path d="M157.5,54.5c0-1.3-0.1-2.5-0.2-3.8c-1.9-17.3-16.5-30.4-33.9-30.3H50.9v66.1c-13.1,10.1-15.4,28.9-5.3,41.9  c0.4,0.5,0.7,0.9,1.1,1.4v47.3c0,1,0.8,1.7,1.7,1.7c0.5,0,0.9-0.2,1.3-0.5L70,156.7l19.9,21.5c0.7,0.7,1.8,0.7,2.5,0.1  c0.4-0.3,0.6-0.8,0.6-1.3v-22.9h64.6L157.5,54.5z M153.6,49.2h-32c0-8.4,0-16.9,0-25.3h1.8C138.3,23.9,151,34.5,153.6,49.2z   M69.2,83.7c14.6-0.1,26.4,12,26.4,26.4c0,14.5-12,26.5-26.4,26.4c-14.1-0.1-25.9-11.7-26.2-26.1C42.8,95.9,54.7,83.7,69.2,83.7z   M89.5,172.6L71.3,153c-0.3-0.4-0.8-0.6-1.3-0.6c-0.5,0-0.9,0.2-1.3,0.5l-18.6,19.7v-39.5c2,1.6,9,6.8,19.3,6.7  c11-0.1,18.2-6.1,20-7.7C89.5,145.6,89.5,159.1,89.5,172.6z M154,150.7H92.9v-22c0-0.1,0-0.2,0-0.3c3.8-4.9,5.9-10.8,6.2-16.9h37.5  V108H99.1c-0.4-6.4-2.9-12.4-7.1-17.3h44.6v-3.5H88.5c-9.6-8.1-23.2-9.3-34.1-3.1V23.9h63.7v28.8H154c0,0.6,0.1,1.2,0.1,1.9  L154,150.7z"/><rect height="3.5" width="57.6" x="79" y="67.2"/><rect height="3.5" width="28.8" x="79" y="44.2"/></svg>